Coordinates
version=1
nRows=10
nColumns=33
inDegrees=yes

Units are S.I. units (second, meters, Newtons, ...)
Angles are in degrees.

endheader
time	ground_thorax_rot_x	ground_thorax_rot_y	ground_thorax_rot_z	ground_thorax_tx	ground_thorax_ty	ground_thorax_tz	clav_prot_r	clav_elev_r	scapula_abduction_r	scapula_elevation_r	scapula_upward_rot_r	scapula_winging_r	shoulder_elv_r	plane_of_elev_r	axial_rot_r	elbow_flexion_r	pro_sup_r	wrist_flex_r	wrist_dev_r	clav_prot_l	clav_elev_l	scapula_abduction_l	scapula_elevation_l	scapula_upward_rot_l	scapula_winging_l	shoulder_elv_l	plane_of_elev_l	axial_rot_l	elbow_flexion_l	pro_sup_l	wrist_flex_l	wrist_dev_l
      4.35000000	     -4.63876808	      4.94036572	     11.02338550	     -0.10663747	      1.02822071	      0.00994340	     17.82136139	    -11.80911619	     45.00000000	    -12.66475608	     24.94579720	    -13.84073746	     -2.35709892	    -53.14394598	    117.94739236	    -32.69255355	   -136.04263120	      3.65689263	     -5.95620993	     24.64466288	    -10.84038832	    -37.08575280	     -4.75020156	    -21.93194722	     12.44036344	     58.58001016	      3.13969020	     13.07496019	     12.53057684	     23.45897877	     15.01662801	     -6.69676113
      4.36000000	     -4.64827762	      4.90755327	     11.00688008	     -0.10670901	      1.02820655	      0.00985364	     17.82179254	    -11.79825918	     44.98944407	    -12.65123350	     24.92827299	    -13.84496266	     -2.36359030	    -53.16558234	    117.94251095	    -32.68500494	   -136.04611823	      3.65933428	     -5.95598328	     24.64481245	    -10.84210471	    -37.08691148	     -4.74593389	    -21.92396973	     12.44320288	     58.58534987	      3.14618235	     13.07343684	     12.53081243	     23.45708148	     15.01412637	     -6.69732711
      4.37000000	     -4.64860069	      4.87056392	     10.98187895	     -0.10684929	      1.02819822	      0.00976734	     17.82115486	    -11.78228237	     44.97107282	    -12.63119264	     24.90040471	    -13.85132434	     -2.36960064	    -53.19954067	    117.93151268	    -32.67696109	   -136.05176486	      3.66238537	     -5.95668972	     24.64405248	    -10.83314911	    -37.08759790	     -4.74933804	    -21.91499865	     12.44717577	     58.60000693	      3.14147579	     13.07349818	     12.52862276	     23.45476556	     15.00963107	     -6.69803697
      4.38000000	     -4.64121430	      4.83109388	     10.95080737	     -0.10708198	      1.02814519	      0.00969100	     17.81890534	    -11.76046870	     44.94395766	    -12.60301368	     24.86376332	    -13.85850487	     -2.37137230	    -53.24653733	    117.91151264	    -32.67064841	   -136.06059631	      3.66607220	     -5.95879524	     24.64144786	    -10.81381471	    -37.08592416	     -4.76160835	    -21.90638522	     12.45330124	     58.62294929	      3.12450082	     13.07580858	     12.52644503	     23.45160390	     15.00311232	     -6.69954678
      4.39000000	     -4.39091736	      4.72233804	     11.26780323	     -0.10663576	      1.02762506	      0.01005895	     17.99149293	    -11.26833232	     45.00000000	    -12.09037203	     24.50278251	    -14.24709074	     -3.10399508	    -53.21998642	    117.15805191	    -33.14774542	   -138.41693590	      4.98413492	     -6.06382171	     24.22577334	    -10.89689662	    -36.38611703	     -4.73123474	    -21.94939961	     12.00149201	     58.33208834	      2.73357756	     12.84378883	     12.75897648	     22.78948287	     13.92780874	     -7.33584938
      4.40000000	     -4.37601761	      4.68922077	     11.21126250	     -0.10701482	      1.02751329	      0.01000616	     17.98788619	    -11.24326687	     44.97218277	    -12.06002926	     24.46644342	    -14.25495570	     -3.08724705	    -53.28637482	    117.12969266	    -33.13639051	   -138.43707119	      4.98556824	     -6.07116942	     24.22085800	    -10.85600115	    -36.38385560	     -4.76009931	    -21.93620000	     12.01188566	     58.37738290	      2.70158007	     12.84730869	     12.76009134	     22.78219535	     13.92018752	     -7.33797875
      4.41000000	     -4.34982502	      4.44514381	     11.30517855	     -0.10673307	      1.02755600	      0.00996024	     18.14064032	    -11.44909652	     45.00000000	    -12.15434384	     24.17513391	    -14.19461129	     -3.51730693	    -53.46016920	    116.58028986	    -33.46648998	   -141.43120057	      5.83934056	     -6.50124008	     23.76012698	    -10.86035539	    -35.61582471	     -4.82154313	    -22.02999517	     11.55102613	     58.41470261	      2.23193294	     12.87255431	     13.32518064	     21.88343922	     13.33388333	     -7.84377593
      4.42000000	     -4.32717834	      4.42237652	     11.24497240	     -0.10731947	      1.02737831	      0.00989805	     18.13557216	    -11.41663343	     44.96187415	    -12.11456660	     24.12689789	    -14.20665771	     -3.49303336	    -53.54350628	    116.54629451	    -33.45499406	   -141.45591178	      5.83985009	     -6.50962512	     23.75594587	    -10.80900730	    -35.61419267	     -4.85581644	    -22.00893354	     11.55936581	     58.47212169	      2.19628206	     12.87370049	     13.32273878	     21.87700254	     13.32782952	     -7.84351822
      4.43000000	     -4.32898851	      4.30312126	     11.07834581	     -0.10730668	      1.02751674	      0.00971602	     18.25543035	    -11.81263896	     44.92225885	    -12.36892256	     23.83006985	    -13.99851727	     -3.80416078	    -53.87935216	    116.43455090	    -33.83343461	   -148.32227586	      7.40249892	     -7.18989229	     23.17857607	    -10.91487348	    -34.64339923	     -4.80725670	    -22.04253836	     10.95439653	     58.85276785	      1.89383628	     11.99334082	     13.57221911	     20.32782892	     12.76108723	     -8.28873984
      4.44000000	     -4.29495351	      4.27600606	     11.03067646	     -0.10799587	      1.02728822	      0.00965113	     18.24490327	    -11.77280217	     44.86183939	    -12.31713464	     23.75866183	    -14.00587998	     -3.78278240	    -53.98159635	    116.38805425	    -33.81591035	   -148.33668719	      7.40031113	     -7.20228362	     23.16552198	    -10.85567037	    -34.62978449	     -4.85347432	    -22.03154567	     10.96363136	     58.90025958	      1.84172070	     12.02494783	     13.58610817	     20.31796515	     12.75414200	     -8.28882782
